#!OML:ASF H:\Terrain\Walking\May29\JustinRory\Justin.ASF
:FULLY-SPECIFIED
:DEGREES
130
root 17.1416 16.681 -1.68671 -193.724 -64.0414 -165.545
lowerback 18.0411 3.46589 3.08188
upperback 5.10603 4.89073 5.41264
thorax -4.81089 2.15089 2.9698
lowerneck 2.65059 -17.4176 -17.027
upperneck 8.31686 -25.2532 15.1874
head 6.17858 -12.5589 5.32165
rclavicle -6.40087e-014 1.66979e-014
rhumerus -0.321391 -44.9714 -39.1329
rradius 53.9839
rwrist -58.1052
rhand 9.27892 23.2294
rfingers 7.12502
rthumb 34.4421 -3.45517
lclavicle -6.40087e-014 1.66979e-014
lhumerus -36.3624 6.33763 75.2151
lradius 63.1719
lwrist -2.34013
lhand -5.01912 36.1025
lfingers 7.12502
lthumb 20.775 65.0104
rfemur -16.2883 -3.86587 10.3892
rtibia 37.1277
rfoot -13.3129 2.32694
rtoes -19.6587
lfemur -35.7084 0.0753659 -11.0853
ltibia 74.7839
lfoot -4.80787 -15.6954
ltoes 4.05374
131
root 17.1587 16.695 -1.68842 -194.242 -64.4008 -164.754
lowerback 17.9897 3.34338 3.51529
upperback 5.28485 4.77045 5.44261
thorax -4.55245 2.0836 2.79201
lowerneck 2.5822 -17.5427 -16.6698
upperneck 8.05738 -25.3254 14.9782
head 6.04566 -12.5874 5.21251
rclavicle 1.70955e-014 -1.19271e-014
rhumerus 0.00758946 -45.781 -39.67
rradius 54.2326
rwrist -58.5021
rhand 8.36208 23.6652
rfingers 7.12502
rthumb 33.5712 -3.21267
lclavicle 1.70955e-014 -1.19271e-014
lhumerus -37.1782 8.21311 74.2572
lradius 61.9725
lwrist -2.44339
lhand -5.07211 36.6201
lfingers 7.12502
lthumb 20.7241 65.5335
rfemur -16.4712 -4.33249 10.7919
rtibia 37.0563
rfoot -13.1359 1.8364
rtoes -21.6893
lfemur -35.8843 0.688244 -11.1578
ltibia 75.1225
lfoot -5.91865 -13.6426
ltoes 3.12579
132
root 17.1786 16.716 -1.6888 -194.028 -64.9086 -164.684
lowerback 17.8994 3.17797 3.3975
upperback 5.38224 4.51499 5.48063
thorax -4.40558 1.95785 2.95987
lowerneck 2.65995 -17.4681 -16.5764
upperneck 7.76681 -25.1544 14.8457
head 5.88532 -12.5121 5.20975
rclavicle 2.26615e-014 9.54166e-014
rhumerus 0.709452 -46.1504 -40.3679
rradius 54.5668
rwrist -59.4404
rhand 8.85193 22.4322
rfingers 7.12502
rthumb 34.0366 -4.34338
lclavicle 2.26615e-014 9.54166e-014
lhumerus -38.3279 9.95989 73.2704
lradius 60.8394
lwrist -2.15154
lhand -5.68427 37.1349
lfingers 7.12502
lthumb 20.1358 66.1114
rfemur -16.5076 -4.58948 10.7933
rtibia 36.7288
rfoot -13.0178 1.31306
rtoes -22.9738
lfemur -36.2292 1.3044 -11.6146
ltibia 75.4229
lfoot -7.08923 -11.7175
ltoes 2.3339
133
root 17.2007 16.7348 -1.68208 -193.518 -65.4195 -164.809
lowerback 17.7717 3.15912 3.10201
upperback 5.39803 4.43746 5.55357
thorax -4.3485 1.92305 3.22583
lowerneck 2.57893 -17.4439 -16.4547
upperneck 7.72847 -25.0646 14.6425
head 5.82938 -12.4658 5.14653
rclavicle -1.35174e-014 4.05521e-014
rhumerus 1.01548 -46.8135 -40.5856
rradius 54.8497
rwrist -59.7439
rhand 8.71097 22.4229
rfingers 7.12502
rthumb 33.9027 -4.38242
lclavicle -1.35174e-014 4.05521e-014
lhumerus -39.287 11.3011 72.5918
lradius 59.3676
lwrist -1.87605
lhand -7.05354 37.6629
lfingers 7.12502
lthumb 18.8193 66.7726
rfemur -16.8364 -4.4386 10.6334
rtibia 36.3151
rfoot -12.7646 0.73326
rtoes -22.2566
lfemur -36.6683 2.01674 -12.2298
ltibia 75.6441
lfoot -8.11313 -10.1702
ltoes 1.3302
134
root 17.2176 16.7492 -1.67326 -193.688 -65.7263 -164.281
lowerback 17.7769 3.19857 3.13125
upperback 5.37016 4.50135 5.67284
thorax -4.39091 1.95291 3.32275
lowerneck 2.5279 -17.51 -16.167
upperneck 7.80839 -25.1073 14.3079
head 5.78729 -12.4838 5.00664
rclavicle 1.23246e-014 -2.38542e-014
rhumerus 0.790938 -47.5694 -40.2887
rradius 54.832
rwrist -58.7396
rhand 11.2497 22.4381
rfingers 7.12502
rthumb 36.3107 -3.80148
lclavicle 1.23246e-014 -2.38542e-014
lhumerus -40.2046 12.3414 71.9355
lradius 57.6345
lwrist -1.53664
lhand -7.98457 37.7994
lfingers 7.12502
lthumb 17.9237 66.9935
rfemur -17.1746 -4.28723 10.747
rtibia 35.8987
rfoot -12.3394 0.386754
rtoes -19.9475
lfemur -36.7479 2.86437 -12.5147
ltibia 75.7247
lfoot -8.98163 -9.10299
ltoes 0.580321
